<?xml version="1.0" encoding="UTF-8" standalone="no"?>
<svg
   xmlns:dc="http://purl.org/dc/elements/1.1/"
   xmlns:cc="http://creativecommons.org/ns#"
   xmlns:rdf="http://www.w3.org/1999/02/22-rdf-syntax-ns#"
   xmlns:svg="http://www.w3.org/2000/svg"
   xmlns="http://www.w3.org/2000/svg"
   xmlns:sodipodi="http://sodipodi.sourceforge.net/DTD/sodipodi-0.dtd"
   xmlns:inkscape="http://www.inkscape.org/namespaces/inkscape"
   version="1.1"
   x="0px"
   y="0px"
   viewBox="0 0 432.67499 468.5"
   xml:space="preserve"
   id="svg966"
   sodipodi:docname="aggregation-active.svg"
   width="432.67499"
   height="468.5"
   inkscape:version="0.92.2 (5c3e80d, 2017-08-06)"><metadata
     id="metadata972"><rdf:RDF><cc:Work
         rdf:about=""><dc:format>image/svg+xml</dc:format><dc:type
           rdf:resource="http://purl.org/dc/dcmitype/StillImage" /><dc:title></dc:title></cc:Work></rdf:RDF></metadata><defs
     id="defs970" /><sodipodi:namedview
     pagecolor="#ffffff"
     bordercolor="#666666"
     borderopacity="1"
     objecttolerance="10"
     gridtolerance="10"
     guidetolerance="10"
     inkscape:pageopacity="0"
     inkscape:pageshadow="2"
     inkscape:window-width="1361"
     inkscape:window-height="788"
     id="namedview968"
     showgrid="false"
     inkscape:zoom="0.52149125"
     inkscape:cx="88.851706"
     inkscape:cy="128.24223"
     inkscape:window-x="0"
     inkscape:window-y="23"
     inkscape:window-maximized="0"
     inkscape:current-layer="g960" /><g
     id="g960"
     transform="translate(-38.351554,-20.011361)"><path
       d="m 102.268,207.744 c -22.056,0 -40,17.944 -40,40 v 83.14 c 0,22.056 17.944,40 40,40 h 99.767 c 22.056,0 40,-17.944 40,-40 v -83.14 c 0,-22.056 -17.944,-40 -40,-40 z m 43.581,20 h 17.931 v 33.09 l -17.931,14.182 z m 76.186,20 v 83.14 c 0,11.028 -8.972,20 -20,20 h -99.767 c -11.028,0 -20,-8.972 -20,-20 v -83.14 c 0,-11.028 8.972,-20 20,-20 h 23.581 v 67.93 c 0,3.834 2.192,7.331 5.643,9.001 1.385,0.67 2.874,0.999 4.355,0.999 2.211,0 4.404,-0.732 6.205,-2.157 l 37.931,-30 c 2.398,-1.896 3.796,-4.786 3.796,-7.843 v -37.93 h 18.255 c 11.029,0 20.001,8.972 20.001,20 z"
       id="path952"
       style="fill:#000000;fill-opacity:1"
       inkscape:connector-curvature="0" /><path
       d="m 309.965,370.884 h 105.093 c 22.056,0 40,-17.944 40,-40 v -83.14 c 0,-22.056 -17.944,-40 -40,-40 H 309.965 c -22.056,0 -40,17.944 -40,40 v 83.14 c 0,22.056 17.944,40 40,40 z m 43.581,-143.14 h 23.256 v 32.696 l -23.256,16.129 z m -63.581,20 c 0,-11.028 8.972,-20 20,-20 h 23.581 v 67.93 c 0,3.721 2.066,7.134 5.363,8.86 1.458,0.763 3.049,1.14 4.636,1.14 2.001,0 3.995,-0.6 5.7,-1.783 l 43.256,-30 c 2.694,-1.869 4.301,-4.939 4.301,-8.217 v -37.93 h 18.256 c 11.028,0 20,8.972 20,20 v 83.14 c 0,11.028 -8.972,20 -20,20 H 309.965 c -11.028,0 -20,-8.972 -20,-20 z"
       id="path954"
       style="fill:#000000;fill-opacity:1"
       inkscape:connector-curvature="0" /><path
       d="M 348.546,145.14 V 62 c 0,-22.056 -17.944,-40 -40,-40 H 203.454 c -22.056,0 -40,17.944 -40,40 v 83.14 c 0,22.056 17.944,40 40,40 h 105.093 c 22.056,0 39.999,-17.944 39.999,-40 z M 241.709,42 h 23.256 V 71.696 L 241.709,87.825 Z M 183.454,145.14 V 62 c 0,-11.028 8.972,-20 20,-20 h 18.256 v 64.93 c 0,3.721 2.066,7.134 5.363,8.86 1.458,0.763 3.049,1.14 4.636,1.14 2.001,0 3.995,-0.6 5.7,-1.783 l 43.255,-30 c 2.694,-1.869 4.301,-4.939 4.301,-8.217 V 42 h 23.581 c 11.028,0 20,8.972 20,20 v 83.14 c 0,11.028 -8.972,20 -20,20 H 203.454 c -11.028,0 -20,-8.973 -20,-20 z"
       id="path956"
       style="fill:#000000;fill-opacity:1;stroke:#8dc449;stroke-opacity:1"
       inkscape:connector-curvature="0" /><path
       d="m 49.663,470 c -5.523,0 -10,4.477 -10,10 0,5.523 4.477,10 10,10 h 412.675 c 5.523,0 10,-4.477 10,-10 0,-5.523 -4.477,-10 -10,-10 h -59.233 v -56.512 h 59.233 c 5.523,0 10,-4.477 10,-10 0,-5.523 -4.477,-10 -10,-10 H 49.663 c -5.523,0 -10,4.477 -10,10 0,5.523 4.477,10 10,10 H 103.57 V 470 Z M 123.57,413.488 H 383.105 V 470 H 123.57 Z"
       id="path958"
       style="fill:#000000;fill-opacity:1"
       inkscape:connector-curvature="0" /></g></svg>