<?xml version="1.0" encoding="UTF-8" standalone="no"?>
<!-- Generator: Adobe Illustrator 19.1.0, SVG Export Plug-In . SVG Version: 6.00 Build 0)  -->

<svg
   xmlns:dc="http://purl.org/dc/elements/1.1/"
   xmlns:cc="http://creativecommons.org/ns#"
   xmlns:rdf="http://www.w3.org/1999/02/22-rdf-syntax-ns#"
   xmlns:svg="http://www.w3.org/2000/svg"
   xmlns="http://www.w3.org/2000/svg"
   xmlns:sodipodi="http://sodipodi.sourceforge.net/DTD/sodipodi-0.dtd"
   xmlns:inkscape="http://www.inkscape.org/namespaces/inkscape"
   version="1.1"
   x="0px"
   y="0px"
   width="24px"
   height="24px"
   viewBox="0 0 24 24"
   enable-background="new 0 0 24 24"
   xml:space="preserve"
   id="svg36"
   sodipodi:docname="companies.svg"
   inkscape:version="0.92.2 (5c3e80d, 2017-08-06)"><metadata
     id="metadata42"><rdf:RDF><cc:Work
         rdf:about=""><dc:format>image/svg+xml</dc:format><dc:type
           rdf:resource="http://purl.org/dc/dcmitype/StillImage" /></cc:Work></rdf:RDF></metadata><defs
     id="defs40" /><sodipodi:namedview
     pagecolor="#ffffff"
     bordercolor="#666666"
     borderopacity="1"
     objecttolerance="10"
     gridtolerance="10"
     guidetolerance="10"
     inkscape:pageopacity="0"
     inkscape:pageshadow="2"
     inkscape:window-width="1353"
     inkscape:window-height="764"
     id="namedview38"
     showgrid="false"
     inkscape:zoom="9.8333333"
     inkscape:cx="12"
     inkscape:cy="12"
     inkscape:window-x="0"
     inkscape:window-y="23"
     inkscape:window-maximized="0"
     inkscape:current-layer="Outline" /><g
     id="Bounding_Boxes"><g
       id="ui_x5F_spec_x5F_header_copy_3"
       display="none" /><path
       fill="none"
       d="M0,0h24v24H0V0z"
       id="path3" /></g><g
     id="Rounded"
     display="none"><g
       id="ui_x5F_spec_x5F_header_copy_5" /><g
       display="inline"
       id="g11"><path
         d="M5,6h14c0.55,0,1-0.45,1-1c0-0.55-0.45-1-1-1H5C4.45,4,4,4.45,4,5C4,5.55,4.45,6,5,6z"
         id="path7" /><path
         d="M20.16,7.8C20.07,7.34,19.66,7,19.18,7H4.82C4.34,7,3.93,7.34,3.84,7.8l-1,5C2.72,13.42,3.19,14,3.82,14H4v5    c0,0.55,0.45,1,1,1h8c0.55,0,1-0.45,1-1v-5h4v5c0,0.55,0.45,1,1,1s1-0.45,1-1v-5h0.18c0.63,0,1.1-0.58,0.98-1.2L20.16,7.8z M12,18    H6v-4h6V18z"
         id="path9" /></g></g><g
     id="Sharp"
     display="none"><g
       id="ui_x5F_spec_x5F_header_copy_4" /><path
       display="inline"
       d="M20,4H4v2h16V4z M21,14v-2l-1-5H4l-1,5v2h1v6h10v-6h4v6h2v-6H21z M12,18H6v-4h6V18z"
       id="path15" /></g><g
     id="Outline"><g
       id="ui_x5F_spec_x5F_header"
       display="none" /><path
       d="M18.36,9l0.6,3H5.04l0.6-3H18.36 M20,4H4v2h16V4L20,4z M20,7H4l-1,5v2h1v6h10v-6h4v6h2v-6h1v-2L20,7L20,7z M6,18v-4h6v4H6   L6,18z"
       id="path19"
       style="fill:#8dc449;fill-opacity:1;stroke:none;stroke-opacity:1" /></g><g
     id="Duotone"
     display="none"><g
       id="ui_x5F_spec_x5F_header_copy_2" /><g
       display="inline"
       id="g29"><polygon
         opacity="0.3"
         points="5.64,9 5.04,12 18.96,12 18.36,9   "
         id="polygon23" /><rect
         x="4"
         y="4"
         width="16"
         height="2"
         id="rect25" /><path
         d="M20,7H4l-1,5v2h1v6h10v-6h4v6h2v-6h1v-2L20,7z M12,18H6v-4h6V18z M5.04,12l0.6-3h12.72l0.6,3H5.04z"
         id="path27" /></g></g><g
     id="Material"
     display="none"><g
       id="ui_x5F_spec_x5F_header_copy" /><path
       display="inline"
       d="M20,4H4v2h16V4z M21,14v-2l-1-5H4l-1,5v2h1v6h10v-6h4v6h2v-6H21z M12,18H6v-4h6V18z"
       id="path33" /></g></svg>