<?xml version="1.0" encoding="UTF-8" standalone="no"?>
<!-- Generator: Adobe Illustrator 19.0.0, SVG Export Plug-In . SVG Version: 6.00 Build 0)  -->

<svg
   xmlns:dc="http://purl.org/dc/elements/1.1/"
   xmlns:cc="http://creativecommons.org/ns#"
   xmlns:rdf="http://www.w3.org/1999/02/22-rdf-syntax-ns#"
   xmlns:svg="http://www.w3.org/2000/svg"
   xmlns="http://www.w3.org/2000/svg"
   xmlns:sodipodi="http://sodipodi.sourceforge.net/DTD/sodipodi-0.dtd"
   xmlns:inkscape="http://www.inkscape.org/namespaces/inkscape"
   version="1.1"
   id="Capa_1"
   x="0px"
   y="0px"
   viewBox="0 0 512 512"
   style="enable-background:new 0 0 512 512;"
   xml:space="preserve"
   sodipodi:docname="rule-active.svg"
   inkscape:version="0.92.2 (5c3e80d, 2017-08-06)"><metadata
     id="metadata1568"><rdf:RDF><cc:Work
         rdf:about=""><dc:format>image/svg+xml</dc:format><dc:type
           rdf:resource="http://purl.org/dc/dcmitype/StillImage" /><dc:title></dc:title></cc:Work></rdf:RDF></metadata><defs
     id="defs1566" /><sodipodi:namedview
     pagecolor="#ffffff"
     bordercolor="#666666"
     borderopacity="1"
     objecttolerance="10"
     gridtolerance="10"
     guidetolerance="10"
     inkscape:pageopacity="0"
     inkscape:pageshadow="2"
     inkscape:window-width="1120"
     inkscape:window-height="652"
     id="namedview1564"
     showgrid="false"
     inkscape:zoom="0.4609375"
     inkscape:cx="-104.13559"
     inkscape:cy="256"
     inkscape:window-x="0"
     inkscape:window-y="23"
     inkscape:window-maximized="0"
     inkscape:current-layer="Capa_1" /><g
     id="g1495"><g
       id="g1493"><path
         d="M131.187,19.652c-32.212,0-58.423,25.972-58.423,57.775l-2.124,299.552l31.867,0.228l2.125-299.663    c0-14.351,11.913-26.025,26.556-26.025h320.266V19.652H131.187z"
         id="path1491"
         style="fill:#000000;fill-opacity:1" /></g></g><g
     id="g1501"><g
       id="g1499"><path
         d="M451.452,19.652c-33.386,0-60.548,27.161-60.548,60.548v336.199c0,24.304-19.779,44.083-44.083,44.083    s-44.083-19.779-44.083-44.083v-38.772c0-8.801-7.133-15.934-15.934-15.934H15.934C7.133,361.693,0,368.826,0,377.627v38.772    c0,41.879,34.071,75.95,75.95,75.95v-31.867c-24.309,0-44.083-19.779-44.083-44.083V393.56h239.004v22.838    c0,41.879,34.071,75.95,75.95,75.95c41.879,0,75.95-34.071,75.95-75.95V167.303h73.295c8.801,0,15.934-7.133,15.934-15.934v-71.17    C512,46.813,484.839,19.652,451.452,19.652z M480.133,135.436h-57.361V80.199c0-15.817,12.869-28.68,28.68-28.68    s28.68,12.864,28.68,28.68V135.436z"
         id="path1497"
         style="fill:#000000;fill-opacity:1" /></g></g><g
     id="g1507"><g
       id="g1505"><rect
         x="72.763"
         y="460.481"
         width="270.335"
         height="31.867"
         id="rect1503"
         style="fill:#000000;fill-opacity:1" /></g></g><g
     id="g1513"><g
       id="g1511"><path
         d="M236.88,108.349h-82.324c-8.801,0-15.934,7.133-15.934,15.934s7.133,15.934,15.934,15.934h82.324    c8.801,0,15.934-7.133,15.934-15.934S245.68,108.349,236.88,108.349z"
         id="path1509"
         style="fill:#000000;fill-opacity:1" /></g></g><g
     id="g1519"><g
       id="g1517"><path
         d="M332.481,172.083H154.556c-8.801,0-15.934,7.133-15.934,15.934s7.133,15.934,15.934,15.934h177.925    c8.801,0,15.934-7.133,15.934-15.934S341.282,172.083,332.481,172.083z"
         id="path1515"
         style="fill:#000000;fill-opacity:1" /></g></g><g
     id="g1525"><g
       id="g1523"><path
         d="M332.481,235.817H154.556c-8.801,0-15.934,7.133-15.934,15.934c0,8.801,7.133,15.934,15.934,15.934h177.925    c8.801,0,15.934-7.128,15.934-15.934C348.415,242.95,341.282,235.817,332.481,235.817z"
         id="path1521"
         style="fill:#000000;fill-opacity:1" /></g></g><g
     id="g1531"><g
       id="g1529"><path
         d="M332.481,299.552H154.556c-8.801,0-15.934,7.133-15.934,15.934s7.133,15.934,15.934,15.934h177.925    c8.801,0,15.934-7.133,15.934-15.934S341.282,299.552,332.481,299.552z"
         id="path1527"
         style="fill:#000000;fill-opacity:1" /></g></g><g
     id="g1533" /><g
     id="g1535" /><g
     id="g1537" /><g
     id="g1539" /><g
     id="g1541" /><g
     id="g1543" /><g
     id="g1545" /><g
     id="g1547" /><g
     id="g1549" /><g
     id="g1551" /><g
     id="g1553" /><g
     id="g1555" /><g
     id="g1557" /><g
     id="g1559" /><g
     id="g1561" /></svg>