<?xml version="1.0" encoding="UTF-8" standalone="no"?>
<!-- Generator: Adobe Illustrator 19.0.0, SVG Export Plug-In . SVG Version: 6.00 Build 0)  -->

<svg
   xmlns:dc="http://purl.org/dc/elements/1.1/"
   xmlns:cc="http://creativecommons.org/ns#"
   xmlns:rdf="http://www.w3.org/1999/02/22-rdf-syntax-ns#"
   xmlns:svg="http://www.w3.org/2000/svg"
   xmlns="http://www.w3.org/2000/svg"
   xmlns:sodipodi="http://sodipodi.sourceforge.net/DTD/sodipodi-0.dtd"
   xmlns:inkscape="http://www.inkscape.org/namespaces/inkscape"
   version="1.1"
   id="Capa_1"
   x="0px"
   y="0px"
   viewBox="0 0 480 480"
   style="enable-background:new 0 0 480 480;"
   xml:space="preserve"
   sodipodi:docname="step.svg"
   inkscape:version="0.92.2 (5c3e80d, 2017-08-06)"><metadata
     id="metadata486"><rdf:RDF><cc:Work
         rdf:about=""><dc:format>image/svg+xml</dc:format><dc:type
           rdf:resource="http://purl.org/dc/dcmitype/StillImage" /></cc:Work></rdf:RDF></metadata><defs
     id="defs484" /><sodipodi:namedview
     pagecolor="#ffffff"
     bordercolor="#666666"
     borderopacity="1"
     objecttolerance="10"
     gridtolerance="10"
     guidetolerance="10"
     inkscape:pageopacity="0"
     inkscape:pageshadow="2"
     inkscape:window-width="1232"
     inkscape:window-height="862"
     id="namedview482"
     showgrid="false"
     inkscape:zoom="0.69532167"
     inkscape:cx="63.215938"
     inkscape:cy="336.50583"
     inkscape:window-x="0"
     inkscape:window-y="23"
     inkscape:window-maximized="0"
     inkscape:current-layer="Capa_1" /><linearGradient
     id="SVGID_1_"
     gradientUnits="userSpaceOnUse"
     x1="-26.875"
     y1="557.325"
     x2="-26.875"
     y2="616.971"
     gradientTransform="matrix(8 0 0 -8 455 4941)"><stop
       offset="0"
       style="stop-color:#006DF0"
       id="stop444" /><stop
       offset="1"
       style="stop-color:#00E7F0"
       id="stop446" /></linearGradient><path
     style="fill:#8dc449;fill-opacity:1"
     d="M472,480H8c-4.418,0-8-3.582-8-8V344c0-4.418,3.582-8,8-8h104V232c0-4.418,3.582-8,8-8h104  V120c0-4.418,3.582-8,8-8h104V8c0-4.418,3.582-8,8-8h128c4.418,0,8,3.582,8,8v464C480,476.418,476.418,480,472,480z M16,464h448V16  H352v104c0,4.418-3.582,8-8,8H240v104c0,4.418-3.582,8-8,8H128v104c0,4.418-3.582,8-8,8H16V464z"
     id="path449" /><g
     id="g451" /><g
     id="g453" /><g
     id="g455" /><g
     id="g457" /><g
     id="g459" /><g
     id="g461" /><g
     id="g463" /><g
     id="g465" /><g
     id="g467" /><g
     id="g469" /><g
     id="g471" /><g
     id="g473" /><g
     id="g475" /><g
     id="g477" /><g
     id="g479" /></svg>