<?xml version="1.0" encoding="UTF-8" standalone="no"?>
<!-- Generator: Adobe Illustrator 19.1.0, SVG Export Plug-In . SVG Version: 6.00 Build 0)  -->

<svg
   xmlns:dc="http://purl.org/dc/elements/1.1/"
   xmlns:cc="http://creativecommons.org/ns#"
   xmlns:rdf="http://www.w3.org/1999/02/22-rdf-syntax-ns#"
   xmlns:svg="http://www.w3.org/2000/svg"
   xmlns="http://www.w3.org/2000/svg"
   xmlns:sodipodi="http://sodipodi.sourceforge.net/DTD/sodipodi-0.dtd"
   xmlns:inkscape="http://www.inkscape.org/namespaces/inkscape"
   version="1.1"
   id="Capa_1"
   x="0px"
   y="0px"
   viewBox="0 0 485 485"
   style="enable-background:new 0 0 485 485;"
   xml:space="preserve"
   sodipodi:docname="tasks.svg"
   inkscape:version="0.92.2 (5c3e80d, 2017-08-06)"><metadata
     id="metadata164"><rdf:RDF><cc:Work
         rdf:about=""><dc:format>image/svg+xml</dc:format><dc:type
           rdf:resource="http://purl.org/dc/dcmitype/StillImage" /><dc:title></dc:title></cc:Work></rdf:RDF></metadata><defs
     id="defs162" /><sodipodi:namedview
     pagecolor="#ffffff"
     bordercolor="#666666"
     borderopacity="1"
     objecttolerance="10"
     gridtolerance="10"
     guidetolerance="10"
     inkscape:pageopacity="0"
     inkscape:pageshadow="2"
     inkscape:window-width="1349"
     inkscape:window-height="850"
     id="namedview160"
     showgrid="false"
     inkscape:zoom="1.0371134"
     inkscape:cx="82.440358"
     inkscape:cy="242.5"
     inkscape:window-x="0"
     inkscape:window-y="23"
     inkscape:window-maximized="0"
     inkscape:current-layer="g125" /><g
     id="g127"><g
       id="g125"><path
         d="M483.8,46.25H181.6c-0.6,0-1.2,0.5-1.2,1.2v28.3c0,0.6,0.5,1.2,1.2,1.2h302.2c0.6,0,1.2-0.5,1.2-1.2v-28.3    C485,46.75,484.5,46.25,483.8,46.25z"
         id="path107"
         style="fill:#8dc449;fill-opacity:1" /><circle
         cx="71.5"
         cy="253.35"
         r="37.9"
         id="circle109"
         style="fill:#8dc449;fill-opacity:1" /><circle
         cx="71.5"
         cy="419.55"
         r="38.1"
         id="circle111"
         style="fill:#8dc449;fill-opacity:1" /><path
         d="M181.6,128.15h142.8c0.6,0,1.2-0.5,1.2-1.2v-28.3c0-0.6-0.5-1.2-1.2-1.2H181.6c-0.6,0-1.2,0.5-1.2,1.2v28.3    C180.5,127.65,181,128.15,181.6,128.15z"
         id="path113"
         style="fill:#8dc449;fill-opacity:1" /><path
         d="M483.8,212.45H181.6c-0.6,0-1.2,0.5-1.2,1.2v28.3c0,0.6,0.5,1.2,1.2,1.2h302.2c0.6,0,1.2-0.5,1.2-1.2v-28.3    C485,212.95,484.5,212.45,483.8,212.45z"
         id="path115"
         style="fill:#8dc449;fill-opacity:1" /><path
         d="M181.6,294.35h142.8c0.6,0,1.2-0.5,1.2-1.2v-28.3c0-0.6-0.5-1.2-1.2-1.2H181.6c-0.6,0-1.2,0.5-1.2,1.2v28.3    C180.5,293.75,181,294.35,181.6,294.35z"
         id="path117"
         style="fill:#8dc449;fill-opacity:1" /><path
         d="M483.8,378.55H181.6c-0.6,0-1.2,0.5-1.2,1.2v28.3c0,0.6,0.5,1.2,1.2,1.2h302.2c0.6,0,1.2-0.5,1.2-1.2v-28.3    C485,379.05,484.5,378.55,483.8,378.55z"
         id="path119"
         style="fill:#8dc449;fill-opacity:1" /><path
         d="M324.4,429.85H181.6c-0.6,0-1.2,0.5-1.2,1.2v28.3c0,0.6,0.5,1.2,1.2,1.2h142.8c0.6,0,1.2-0.5,1.2-1.2v-28.3    C325.6,430.35,325.1,429.85,324.4,429.85z"
         id="path121"
         style="fill:#8dc449;fill-opacity:1" /><polygon
         points="53.4,86.55 27.3,60.25 0,87.45 26.2,113.65 53.3,140.95 80.5,113.85 143,51.75 115.9,24.45   "
         id="polygon123"
         style="stroke:#8dc449;stroke-opacity:1;fill:#8dc449;fill-opacity:1" /></g></g><g
     id="g129" /><g
     id="g131" /><g
     id="g133" /><g
     id="g135" /><g
     id="g137" /><g
     id="g139" /><g
     id="g141" /><g
     id="g143" /><g
     id="g145" /><g
     id="g147" /><g
     id="g149" /><g
     id="g151" /><g
     id="g153" /><g
     id="g155" /><g
     id="g157" /></svg>