<?xml version="1.0" encoding="UTF-8" standalone="no"?>
<svg
   xmlns:dc="http://purl.org/dc/elements/1.1/"
   xmlns:cc="http://creativecommons.org/ns#"
   xmlns:rdf="http://www.w3.org/1999/02/22-rdf-syntax-ns#"
   xmlns:svg="http://www.w3.org/2000/svg"
   xmlns="http://www.w3.org/2000/svg"
   xmlns:sodipodi="http://sodipodi.sourceforge.net/DTD/sodipodi-0.dtd"
   xmlns:inkscape="http://www.inkscape.org/namespaces/inkscape"
   version="1.1"
   x="0px"
   y="0px"
   viewBox="0 0 50 50"
   xml:space="preserve"
   id="svg12117"
   sodipodi:docname="transaction-active.svg"
   width="50"
   height="50"
   inkscape:version="0.92.2 (5c3e80d, 2017-08-06)"><metadata
     id="metadata12123"><rdf:RDF><cc:Work
         rdf:about=""><dc:format>image/svg+xml</dc:format><dc:type
           rdf:resource="http://purl.org/dc/dcmitype/StillImage" /><dc:title></dc:title></cc:Work></rdf:RDF></metadata><defs
     id="defs12121" /><sodipodi:namedview
     pagecolor="#ffffff"
     bordercolor="#666666"
     borderopacity="1"
     objecttolerance="10"
     gridtolerance="10"
     guidetolerance="10"
     inkscape:pageopacity="0"
     inkscape:pageshadow="2"
     inkscape:window-width="1346"
     inkscape:window-height="761"
     id="namedview12119"
     showgrid="false"
     inkscape:zoom="6.2625"
     inkscape:cx="0.54291417"
     inkscape:cy="40"
     inkscape:window-x="0"
     inkscape:window-y="23"
     inkscape:window-maximized="0"
     inkscape:current-layer="svg12117" /><path
     d="m 49.23149,0.39777831 c -0.09537,-0.0400024 -0.19537,-0.0515376 -0.294593,-0.0515376 v -0.006874 h -9.999239 -9.230069 -9.230067 c -0.2046,0 -0.39997,0.0807689 -0.543805,0.22536694 L 10.704419,9.7939868 C 10.565198,9.9332078 10.478282,10.1255 10.478282,10.338561 V 29.56787 c 0,0.425351 0.343821,0.769172 0.769173,0.769172 h 28.459374 c 0.213061,0 0.405355,-0.08692 0.544575,-0.226137 l 9.229298,-9.229298 c 0.144605,-0.143835 0.225367,-0.339205 0.225367,-0.543805 V 1.1084938 c 0,-0.31074654 -0.186909,-0.5922627 -0.474579,-0.71071549 z M 39.388393,9.5693887 h -7.824022 l 7.691724,-7.6917233 h 7.82402 z M 37.080875,1.8776654 29.163784,9.7947563 c -0.144603,0.1438355 -0.225366,0.3392057 -0.225366,0.5438047 v 7.024082 l -1.111455,-0.741482 c -0.258442,-0.173064 -0.594569,-0.173064 -0.853012,0 l -1.881395,1.253751 -1.880627,-1.253751 c -0.12922,-0.08614 -0.278441,-0.129221 -0.42689,-0.129221 -0.14845,0 -0.29767,0.04308 -0.426891,0.129221 l -1.111453,0.741482 v -6.705644 l 8.779332,-8.7793336 z m -16.284915,0 h 7.054848 L 20.159084,9.5693887 H 13.104235 Z M 38.937658,28.798698 H 12.016626 V 11.107734 h 7.691723 v 7.691724 c 0,0.283824 0.156142,0.544574 0.406123,0.67841 0.249212,0.133835 0.553804,0.118451 0.78917,-0.03846 l 1.881397,-1.253751 1.880626,1.253751 c 0.258443,0.173063 0.594571,0.173063 0.853012,0 l 1.881396,-1.253751 1.880626,1.253751 c 0.128452,0.08537 0.277671,0.12922 0.42689,0.12922 0.124607,0 0.249212,-0.03 0.363049,-0.09077 0.249982,-0.133836 0.406124,-0.394585 0.406124,-0.67841 v -7.691723 h 8.460896 z m 9.230066,-8.779334 -7.691722,7.691723 V 10.656999 l 7.691722,-7.6917232 z"
     id="path12107"
     inkscape:connector-curvature="0"
     style="stroke-width:0.76917231" /><path
     d="m 15.093316,45.720487 c 0.425352,0 0.769172,-0.34382 0.769172,-0.769172 h 2.125992 l 8.223221,4.111995 c 0.355358,0.177679 0.740713,0.266903 1.124531,0.266903 0.437658,0 0.874548,-0.114607 1.266057,-0.34305 l 16.780263,-9.789256 c 0.769172,-0.448428 1.246828,-1.279904 1.246828,-2.170605 0,-0.74379 -0.326898,-1.445275 -0.896085,-1.924469 -0.568419,-0.478426 -1.317593,-0.679949 -2.048306,-0.553035 L 28.430763,37.202673 24.098016,32.869925 C 23.954181,32.725321 23.758811,32.644558 23.55421,32.644558 h -7.691722 c 0,-0.425352 -0.34382,-0.769173 -0.769172,-0.769173 H 12.016626 0.47904189 V 33.41373 H 11.247455 V 44.182143 H 0.47904189 v 1.538344 H 12.016626 Z m 8.142457,-11.537584 6.06031,6.060308 c 0.261518,0.261519 0.411506,0.623799 0.411506,0.99454 0,0.775326 -0.630721,1.406047 -1.406045,1.406047 -0.369974,0 -0.733023,-0.149989 -0.994541,-0.411507 l -3.978159,-3.978159 -1.087609,1.087609 3.978158,3.978159 c 0.556112,0.556112 1.295287,0.862243 2.082151,0.862243 1.622952,0 2.944391,-1.321439 2.944391,-2.944392 0,-0.786094 -0.306131,-1.526038 -0.862243,-2.082149 l -0.62303,-0.62303 14.186615,-2.467505 c 0.286901,-0.05154 0.574571,0.02845 0.795324,0.214599 0.221521,0.18614 0.348435,0.458427 0.348435,0.746866 0,0.345358 -0.185371,0.668412 -0.48381,0.842244 l -16.779493,9.789256 c -0.284595,0.166142 -0.631491,0.17691 -0.927622,0.02923 l -8.385516,-4.19276 c -0.10692,-0.05384 -0.225369,-0.08154 -0.344591,-0.08154 h -2.307516 v -9.230064 z m -8.911629,9.99924 H 12.785799 V 33.41373 h 1.538345 z"
     id="path12109"
     inkscape:connector-curvature="0"
     style="stroke-width:0.76917231" /><path
     d="m 7.4015928,7.2618721 c 0,0.4253522 0.3438199,0.7691722 0.7691722,0.7691722 0.4253523,0 0.7691724,-0.34382 0.7691724,-0.7691722 0,-1.2722111 1.0353064,-2.3075171 2.3075176,-2.3075171 0.425351,0 0.769171,-0.3438199 0.769171,-0.7691722 0,-0.4253523 -0.34382,-0.769172 -0.769171,-0.769172 -1.2722112,0 -2.3075176,-1.0353063 -2.3075176,-2.307517 0,-0.42535308 -0.3438201,-0.76917281 -0.7691724,-0.76917281 -0.4253523,0 -0.7691722,0.34381973 -0.7691722,0.76917281 0,1.2722107 -1.0353061,2.307517 -2.3075171,2.307517 -0.4253522,0 -0.7691722,0.3438197 -0.7691722,0.769172 0,0.4253523 0.34382,0.7691722 0.7691722,0.7691722 1.272211,0 2.3075171,1.035306 2.3075171,2.3075171 z M 8.170765,3.4137026 C 8.3899791,3.7059885 8.6499593,3.9659686 8.942245,4.1851828 8.6499593,4.4043969 8.3899791,4.6643771 8.170765,4.9566626 7.9515508,4.6643771 7.6915706,4.4043969 7.3992851,4.1851828 7.6915706,3.9659686 7.9515508,3.7059885 8.170765,3.4137026 Z"
     id="path12111"
     inkscape:connector-curvature="0"
     style="stroke-width:0.76917231" /></svg>