<?xml version="1.0" encoding="UTF-8" standalone="no"?>
<!-- Generator: Adobe Illustrator 17.1.0, SVG Export Plug-In . SVG Version: 6.00 Build 0)  -->

<svg
   xmlns:dc="http://purl.org/dc/elements/1.1/"
   xmlns:cc="http://creativecommons.org/ns#"
   xmlns:rdf="http://www.w3.org/1999/02/22-rdf-syntax-ns#"
   xmlns:svg="http://www.w3.org/2000/svg"
   xmlns="http://www.w3.org/2000/svg"
   xmlns:sodipodi="http://sodipodi.sourceforge.net/DTD/sodipodi-0.dtd"
   xmlns:inkscape="http://www.inkscape.org/namespaces/inkscape"
   version="1.1"
   id="Layer_1"
   x="0px"
   y="0px"
   viewBox="0 0 16 16"
   enable-background="new 0 0 16 16"
   xml:space="preserve"
   sodipodi:docname="group-objects.svg"
   inkscape:version="0.92.2 (5c3e80d, 2017-08-06)"><metadata
     id="metadata971"><rdf:RDF><cc:Work
         rdf:about=""><dc:format>image/svg+xml</dc:format><dc:type
           rdf:resource="http://purl.org/dc/dcmitype/StillImage" /><dc:title></dc:title></cc:Work></rdf:RDF></metadata><defs
     id="defs969" /><sodipodi:namedview
     pagecolor="#ffffff"
     bordercolor="#666666"
     borderopacity="1"
     objecttolerance="10"
     gridtolerance="10"
     guidetolerance="10"
     inkscape:pageopacity="0"
     inkscape:pageshadow="2"
     inkscape:window-width="1045"
     inkscape:window-height="675"
     id="namedview967"
     showgrid="false"
     inkscape:zoom="14.75"
     inkscape:cx="8"
     inkscape:cy="8"
     inkscape:window-x="0"
     inkscape:window-y="23"
     inkscape:window-maximized="0"
     inkscape:current-layer="g963" /><g
     id="group_objects_2_"><g
       id="g963"><path
         fill-rule="evenodd"
         clip-rule="evenodd"
         d="M5,6C3.9,6,3,6.9,3,8c0,1.1,0.9,2,2,2s2-0.9,2-2C7,6.9,6.1,6,5,6z M11,3H5    C2.24,3,0,5.24,0,8s2.24,5,5,5h6c2.76,0,5-2.24,5-5S13.76,3,11,3z M11,12H5c-2.21,0-4-1.79-4-4c0-2.21,1.79-4,4-4h6    c2.21,0,4,1.79,4,4C15,10.21,13.21,12,11,12z M11,6C9.9,6,9,6.9,9,8c0,1.1,0.9,2,2,2s2-0.9,2-2C13,6.9,12.1,6,11,6z"
         id="path961"
         style="fill:#8dc449;fill-opacity:1" /></g></g></svg>