<?xml version="1.0" encoding="UTF-8" standalone="no"?>
<!-- Generator: Adobe Illustrator 19.1.0, SVG Export Plug-In . SVG Version: 6.00 Build 0)  -->

<svg
   xmlns:dc="http://purl.org/dc/elements/1.1/"
   xmlns:cc="http://creativecommons.org/ns#"
   xmlns:rdf="http://www.w3.org/1999/02/22-rdf-syntax-ns#"
   xmlns:svg="http://www.w3.org/2000/svg"
   xmlns="http://www.w3.org/2000/svg"
   xmlns:sodipodi="http://sodipodi.sourceforge.net/DTD/sodipodi-0.dtd"
   xmlns:inkscape="http://www.inkscape.org/namespaces/inkscape"
   version="1.1"
   x="0px"
   y="0px"
   width="24px"
   height="24px"
   viewBox="0 0 24 24"
   enable-background="new 0 0 24 24"
   xml:space="preserve"
   id="svg889"
   sodipodi:docname="quartet-lock-light.svg"
   inkscape:version="0.92.2 (5c3e80d, 2017-08-06)"><metadata
     id="metadata895"><rdf:RDF><cc:Work
         rdf:about=""><dc:format>image/svg+xml</dc:format><dc:type
           rdf:resource="http://purl.org/dc/dcmitype/StillImage" /><dc:title></dc:title></cc:Work></rdf:RDF></metadata><defs
     id="defs893"><filter
       style="color-interpolation-filters:sRGB;"
       inkscape:label="Blur"
       id="filter1654"><feGaussianBlur
         stdDeviation="1.06 1.32566"
         result="fbSourceGraphic"
         id="feGaussianBlur1652" /><feColorMatrix
         result="fbSourceGraphicAlpha"
         in="fbSourceGraphic"
         values="0 0 0 -1 0 0 0 0 -1 0 0 0 0 -1 0 0 0 0 1 0"
         id="feColorMatrix1656" /><feGaussianBlur
         id="feGaussianBlur1658"
         stdDeviation="1.06 1.33"
         result="blur"
         in="fbSourceGraphic" /></filter></defs><sodipodi:namedview
     pagecolor="#ffffff"
     bordercolor="#666666"
     borderopacity="1"
     objecttolerance="10"
     gridtolerance="10"
     guidetolerance="10"
     inkscape:pageopacity="0"
     inkscape:pageshadow="2"
     inkscape:window-width="1504"
     inkscape:window-height="912"
     id="namedview891"
     showgrid="false"
     inkscape:zoom="20.958333"
     inkscape:cx="12"
     inkscape:cy="12"
     inkscape:window-x="0"
     inkscape:window-y="23"
     inkscape:window-maximized="0"
     inkscape:current-layer="svg889" /><g
     id="Bounding_Boxes"><g
       id="ui_x5F_spec_x5F_header_copy_3"
       display="none" /><path
       fill="none"
       d="M0,0h24v24H0V0z"
       id="path876" /><path
       opacity="0.87"
       fill="none"
       d="M0,0h24v24H0V0z"
       id="path878" /></g><g
     id="Duotone"
     style="fill:#989898;fill-opacity:1"><g
       id="ui_x5F_spec_x5F_header_copy_2"
       display="none"
       style="fill:#989898;fill-opacity:1" /><g
       id="g886"
       style="fill:#989898;fill-opacity:1"><path
         style="fill:#989898;fill-opacity:1"
         d="M 12,1 C 9.24,1 7,3.24 7,6 V 8 H 6 C 4.9,8 4,8.9 4,10 v 10 c 0,1.1 0.9,2 2,2 h 12 c 1.1,0 2,-0.9 2,-2 V 10 C 20,8.9 19.1,8 18,8 H 17 V 6 C 17,3.24 14.76,1 12,1 Z m 0,2 c 1.66,0 3,1.34 3,3 V 8 H 9 V 6 C 9,4.34 10.34,3 12,3 Z m -0.08008,8.949219 h 1.888672 v 4.023437 h 0.910156 v 1.324219 h -0.910156 v 1.332031 H 12.484375 V 17.296875 H 8.8320312 Z"
         id="path884"
         inkscape:connector-curvature="0"
         sodipodi:nodetypes="sscsssssssscssssccssccccccccccc" /></g></g></svg>